HIERARCHY
ROOT Hips
{
	OFFSET -3.958830 18.904000 13.208200
	CHANNELS 6 Xposition Yposition Zposition Zrotation Yrotation Xrotation 
	JOINT LHipJoint
	{
		OFFSET 0.000000 0.000000 0.000000
		CHANNELS 3 Zrotation Yrotation Xrotation
		JOINT LeftUpLeg
		{
			OFFSET 1.800000 -1.400000 0.085000
			CHANNELS 3 Zrotation Yrotation Xrotation
			JOINT LeftLeg
			{
				OFFSET 2.215000 -6.000000 0.000000
				CHANNELS 3 Zrotation Yrotation Xrotation
				JOINT LeftFoot
				{
					OFFSET 2.500000 -6.900000 0.000000
					CHANNELS 3 Zrotation Yrotation Xrotation
					JOINT LeftToeBase
					{
						OFFSET 0.200000 -0.500000 1.950000
						CHANNELS 3 Zrotation Yrotation Xrotation
						End Site
						{
							OFFSET 0.000000 0.000000 0.000000
						}
					}
				}
			}
		}
	}
	JOINT RHipJoint
	{
		OFFSET 0.000000 0.000000 0.000000
		CHANNELS 3 Zrotation Yrotation Xrotation
		JOINT RightUpLeg
		{
			OFFSET -1.800000 -1.400000 0.085000
			CHANNELS 3 Zrotation Yrotation Xrotation
			JOINT RightLeg
			{
				OFFSET -2.215000 -6.000000 0.000000
				CHANNELS 3 Zrotation Yrotation Xrotation
				JOINT RightFoot
				{
					OFFSET -2.500000 -6.900000 0.000000
					CHANNELS 3 Zrotation Yrotation Xrotation
					JOINT RightToeBase
					{
						OFFSET -0.200000 -0.500000 1.950000
						CHANNELS 3 Zrotation Yrotation Xrotation
						End Site
						{
							OFFSET 0.000000 0.000000 0.000000
						}
					}
				}
			}
		}
	}
	JOINT LowerBack
	{
		OFFSET 0.000000 0.000000 0.000000
		CHANNELS 3 Zrotation Yrotation Xrotation
		JOINT Spine
		{
			OFFSET -0.087000 1.940000 -0.288900
			CHANNELS 3 Zrotation Yrotation Xrotation
			JOINT Spine1
			{
				OFFSET 0.000000 1.950000 0.060000
				CHANNELS 3 Zrotation Yrotation Xrotation
				JOINT Neck
				{
					OFFSET 0.000000 0.000000 0.000000
					CHANNELS 3 Zrotation Yrotation Xrotation
					JOINT Neck1
					{
						OFFSET 0.000000 1.600000 0.340000
						CHANNELS 3 Zrotation Yrotation Xrotation
						JOINT Head
						{
							OFFSET 0.000000 1.667000 -0.240000
							CHANNELS 3 Zrotation Yrotation Xrotation
							End Site
							{
								OFFSET 0.000000 0.000000 0.000000
							}
						}
					}
				}
				JOINT LeftShoulder
				{
					OFFSET 0.000000 0.000000 0.000000
					CHANNELS 3 Zrotation Yrotation Xrotation
					JOINT LeftArm
					{
						OFFSET 2.700000 1.550000 -0.730000
						CHANNELS 3 Zrotation Yrotation Xrotation
						JOINT LeftForeArm
						{
							OFFSET 5.450000 0.000000 0.000000
							CHANNELS 3 Zrotation Yrotation Xrotation
							JOINT LeftHand
							{
								OFFSET 3.450000 0.000000 0.000000
								CHANNELS 3 Zrotation Yrotation Xrotation
								JOINT LeftHandIndex1
								{
									OFFSET 0.750000 0.000000 0.000000
									CHANNELS 3 Zrotation Yrotation Xrotation
									End Site
									{
										OFFSET 0.000000 0.000000 0.000000
									}
								}
							}
						}
					}
				}
				JOINT RightShoulder
				{
					OFFSET 0.000000 0.000000 0.000000
					CHANNELS 3 Zrotation Yrotation Xrotation
					JOINT RightArm
					{
						OFFSET -2.700000 1.550000 -0.730000
						CHANNELS 3 Zrotation Yrotation Xrotation
						JOINT RightForeArm
						{
							OFFSET -5.450000 0.000000 0.000000
							CHANNELS 3 Zrotation Yrotation Xrotation
							JOINT RightHand
							{
								OFFSET -3.450000 0.000000 0.000000
								CHANNELS 3 Zrotation Yrotation Xrotation
								JOINT RightHandIndex1
								{
									OFFSET -0.750000 0.000000 0.000000
									CHANNELS 3 Zrotation Yrotation Xrotation
									End Site
									{
										OFFSET 0.000000 0.000000 0.000000
									}
								}
							}
						}
					}
				}
			}
		}
	}
}
MOTION
Frames: 14
Frame Time: 0.016667
0.948440 17.832010 -1.503600 -1.495752 1.740284 4.496302 -15.117185 13.112329 2.828729 3.003184 -1.712806 -14.910385 -4.941302 4.397932 8.377709 -0.242402 3.176481 3.550377 -0.113340 -0.157370 -0.159120 18.309146 -10.995799 2.716554 -5.551172 1.199298 -16.066566 6.225137 -3.857965 9.163019 0.201186 -2.979402 3.376455 0.026760 0.381970 0.048880 -3.740347 -1.153620 -6.942844 6.449996 -0.125279 3.931682 -0.578341 -0.095244 4.801360 0.494883 -3.310730 -7.779554 -6.714812 1.344491 28.774157 -2.755140 0.557000 2.148470 -24.950524 -8.694468 4.181135 -54.200542 -4.378033 -3.392349 -22.960889 -21.142856 2.123607 -3.985612 3.172151 -0.121020 0.292610 -0.281250 0.056540 24.210094 12.212966 4.191527 51.602402 8.965736 -2.730497 15.658537 18.833579 0.711584 2.508282 -1.449876 -0.169430 0.116680 0.142210 0.030300 
0.947680 17.832120 -1.503520 -1.549233 1.198473 4.525450 -15.108925 13.105609 2.813458 2.956906 -1.738506 -15.104795 -4.779882 4.418695 8.818787 -0.246863 3.170574 3.550468 -0.114010 -0.156230 -0.159850 18.315537 -11.004526 2.736299 -5.605805 1.197940 -15.976122 6.417697 -3.861114 8.884184 0.199280 -2.994508 3.371965 0.028540 0.384120 0.048790 -3.754126 -1.110508 -6.941921 6.522758 0.031525 3.960708 -0.670769 0.073284 4.683285 0.559573 -3.248425 -7.698665 -6.565896 1.414642 28.720999 -2.781510 0.700440 2.194690 -25.460841 -8.680294 4.106025 -53.917819 -4.283413 -3.373921 -22.143096 -20.696534 1.945013 -3.990023 3.165249 -0.123860 0.296000 -0.283240 0.056770 24.580033 12.201583 4.155180 51.423402 8.961650 -2.664820 15.358429 18.542169 0.653481 2.508763 -1.449662 -0.170560 0.116290 0.142040 0.030220 
0.946950 17.828930 -1.497380 -1.568023 0.385257 4.479029 -15.102874 13.110282 2.795477 2.853066 -1.758288 -15.261849 -4.530177 4.447997 9.450980 -0.255703 3.172235 3.546911 -0.109230 -0.152420 -0.154430 18.318015 -11.024221 2.751237 -5.666218 1.170799 -15.766695 6.466921 -3.852758 8.639251 0.193363 -3.009430 3.368246 0.032650 0.383350 0.050080 -3.754630 -1.068620 -6.935586 6.474945 0.256212 4.016197 -0.666246 0.304414 4.499410 0.614821 -3.185981 -7.555806 -6.427098 1.539893 28.756954 -2.785600 0.890440 2.086530 -26.161207 -8.536932 3.982093 -53.646319 -4.106124 -3.401969 -20.830317 -20.285672 1.701583 -3.992426 3.150087 -0.119370 0.296790 -0.280850 0.058000 25.170752 12.098920 4.054044 51.144473 8.975556 -2.540283 14.756756 17.927472 0.549860 2.508956 -1.442595 -0.173020 0.118170 0.140090 0.026820 
0.948380 17.824870 -1.485080 -1.671136 -0.728030 4.395443 -15.088799 13.112461 2.765050 2.839838 -1.771477 -15.493176 -4.299026 4.532672 10.380254 -0.253421 3.193870 3.538027 -0.116710 -0.156630 -0.162940 18.329452 -11.044264 2.776784 -5.644765 1.116582 -15.353592 6.507966 -3.813754 8.110007 0.191076 -3.034670 3.368006 0.030990 0.392320 0.047490 -3.775314 -1.014420 -6.924761 6.622676 0.499587 4.007890 -0.670631 0.552841 4.300016 0.647966 -3.244418 -7.407890 -6.501554 1.757132 28.815987 -2.794170 1.100290 2.334740 -26.923692 -8.320038 3.849432 -53.566712 -3.883191 -3.450082 -19.286983 -19.849540 1.437873 -4.000952 3.133030 -0.126210 0.304000 -0.287210 0.059560 25.851232 12.005073 3.972633 50.709496 8.929252 -2.420515 14.182408 17.285046 0.452463 2.512392 -1.436827 -0.175980 0.120710 0.142460 0.029660 
0.953480 17.822540 -1.467530 -1.752560 -1.751303 4.276277 -15.075262 13.112599 2.745028 2.906333 -1.757796 -15.534296 -4.297013 4.639912 11.031595 -0.247235 3.235732 3.520756 -0.124920 -0.166300 -0.166930 18.340478 -11.063277 2.792466 -5.631638 1.071545 -15.051256 6.419706 -3.770385 7.729429 0.190516 -3.045385 3.370199 0.025300 0.394710 0.046190 -3.795773 -0.965496 -6.918158 6.804387 0.734852 3.980437 -0.642394 0.791054 4.204053 0.667723 -3.334114 -7.361037 -6.664679 1.866896 28.970914 -2.875550 1.219330 2.533870 -27.261260 -8.169616 3.764760 -53.678930 -3.806464 -3.462410 -18.212886 -19.598715 1.267254 -4.007567 3.117695 -0.127540 0.306830 -0.290330 0.056540 26.134354 11.984195 4.001048 50.488909 8.761684 -2.423780 14.052012 16.999153 0.426951 2.513724 -1.431589 -0.178190 0.120330 0.146580 0.028640 
0.959810 17.819860 -1.445230 -1.697472 -2.470276 4.090524 -15.070156 13.134005 2.737982 2.872067 -1.734500 -15.424390 -4.357892 4.746359 11.550183 -0.245409 3.289599 3.502019 -0.131980 -0.173850 -0.176110 18.342521 -11.081590 2.775909 -5.773979 1.019586 -14.864928 6.275960 -3.797302 7.928038 0.190514 -3.062534 3.365596 0.023340 0.402740 0.043120 -3.795276 -0.977056 -6.895556 6.837388 0.836087 3.929647 -0.636685 0.902238 4.206803 0.621562 -3.491697 -7.309356 -6.971952 2.077700 29.050430 -2.712110 1.254130 2.574430 -27.203121 -7.928645 3.629307 -53.844369 -4.051535 -3.335683 -17.346709 -19.525455 1.160195 -4.013965 3.103524 -0.123740 0.307660 -0.294210 0.056700 26.160399 11.833579 4.032735 50.641497 8.527053 -2.552048 14.021317 17.164766 0.427915 2.508745 -1.425448 -0.184950 0.127580 0.154100 0.029330 
0.970400 17.818590 -1.424500 -1.664497 -2.881263 3.850617 -15.064161 13.162829 2.732808 2.947734 -1.711154 -15.281050 -4.483455 4.869023 12.041520 -0.247378 3.362889 3.479051 -0.136200 -0.183190 -0.178730 18.345070 -11.101824 2.750105 -5.838481 0.990165 -14.841102 5.968741 -3.812883 8.340149 0.194374 -3.064475 3.365491 0.022800 0.412660 0.042930 -3.800468 -1.001533 -6.871010 6.969710 0.828180 3.924662 -0.742218 0.910170 4.243780 0.603972 -3.520918 -7.206489 -7.063327 2.184529 29.111225 -2.632690 1.287400 2.612610 -27.170480 -7.675511 3.445428 -53.618833 -4.513277 -3.169388 -16.861978 -20.054767 1.189915 -4.021143 3.094609 -0.117980 0.311930 -0.298970 0.057420 26.139039 11.501024 4.020049 50.909429 8.220364 -2.757157 13.995116 17.614221 0.436245 2.498401 -1.421228 -0.194460 0.135850 0.160330 0.026710 
0.982280 17.815370 -1.402910 -1.591698 -3.177757 3.582518 -15.063964 13.208126 2.738296 3.068809 -1.700568 -15.179591 -4.743739 5.052324 12.687906 -0.243325 3.456833 3.445132 -0.132270 -0.179390 -0.175600 18.339329 -11.132352 2.699049 -5.890170 0.994827 -15.117898 5.481021 -3.858244 9.427342 0.202613 -3.056557 3.362056 0.029610 0.416110 0.042850 -3.785469 -1.049285 -6.835668 6.971548 0.793813 3.971444 -0.742756 0.883959 4.322348 0.562476 -3.465544 -7.060924 -6.997841 2.175007 29.000043 -2.585400 1.300810 2.527220 -27.042052 -7.382425 3.190487 -53.336779 -5.350589 -2.906008 -16.449533 -21.024279 1.299507 -4.025162 3.095617 -0.117500 0.314650 -0.300920 0.058780 26.080503 11.034569 3.989821 51.192018 7.798492 -3.050597 13.995557 18.339643 0.445902 2.487399 -1.425507 -0.198760 0.140070 0.159920 0.025100 
0.992970 17.810450 -1.379110 -1.360738 -3.346854 3.285685 -15.077437 13.270648 2.756576 3.056036 -1.686174 -14.962424 -5.012087 5.215637 13.175830 -0.232480 3.544188 3.418860 -0.122380 -0.165880 -0.172910 18.320484 -11.161690 2.622310 -5.998233 1.006472 -15.597115 4.676179 -3.874435 10.941686 0.215829 -3.044724 3.361591 0.041010 0.423250 0.042770 -3.732675 -1.145108 -6.789490 6.648931 0.688166 3.993024 -0.546556 0.773100 4.467208 0.431236 -3.447268 -6.925738 -6.996450 2.119134 28.715921 -2.527090 1.244560 2.493710 -26.743301 -7.103808 2.957957 -53.069898 -6.393580 -2.629495 -16.124909 -22.636231 1.499299 -4.025943 3.106108 -0.124900 0.320960 -0.305360 0.066450 26.061719 10.604823 3.960956 51.308384 7.403822 -3.267365 14.212970 18.978210 0.469916 2.477171 -1.438978 -0.199370 0.143960 0.152650 0.028500 
1.007110 17.804520 -1.349770 -1.120427 -3.297570 2.910655 -15.089260 13.348409 2.775913 3.059036 -1.680812 -14.752443 -5.199080 5.385890 13.820680 -0.222950 3.643728 3.384824 -0.117950 -0.159680 -0.173140 18.300329 -11.196638 2.540010 -6.179227 1.005043 -16.067366 3.831509 -3.917172 12.741341 0.226099 -3.059130 3.347417 0.048610 0.428400 0.043240 -3.682919 -1.265147 -6.748912 6.409143 0.523957 4.069748 -0.388541 0.621664 4.666836 0.279742 -3.499843 -6.882032 -7.151960 1.955513 28.464552 -2.528040 1.063300 2.446230 -26.324394 -6.975996 2.777381 -52.639877 -7.603417 -2.365343 -16.056037 -25.052852 1.835606 -4.023477 3.122804 -0.130630 0.325210 -0.310100 0.069110 25.951687 10.338494 4.055237 51.336680 6.872045 -3.519697 14.550578 19.612624 0.514486 2.466262 -1.449428 -0.200310 0.146820 0.152070 0.030470 
1.023340 17.792930 -1.314510 -0.804521 -2.922990 2.491749 -15.106592 13.440362 2.796028 3.064668 -1.683159 -14.511000 -5.325838 5.562254 14.562766 -0.210855 3.760955 3.347994 -0.121960 -0.165990 -0.180090 18.273291 -11.237979 2.441964 -6.522897 0.984187 -16.619127 2.865777 -3.987390 14.967897 0.236584 -3.114557 3.319149 0.050480 0.441700 0.044110 -3.619716 -1.411039 -6.703018 6.024790 0.340432 4.108947 -0.164102 0.449404 4.948553 0.077597 -3.517222 -6.925782 -7.256195 1.707536 28.168459 -2.422800 0.769880 2.583700 -25.647436 -6.975531 2.680222 -52.307261 -9.005983 -2.151508 -15.831982 -28.493897 2.254209 -4.020683 3.142277 -0.137860 0.333480 -0.320640 0.071770 25.697482 10.150429 4.235365 51.651714 6.183562 -3.868654 14.518829 20.255858 0.502680 2.453925 -1.456571 -0.205110 0.151160 0.156470 0.033620 
1.042440 17.778850 -1.283800 -0.529155 -2.602744 2.099982 -15.115816 13.520620 2.815771 3.177094 -1.712824 -14.360784 -5.504998 5.764539 15.398527 -0.211238 3.897273 3.301962 -0.122670 -0.167220 -0.186000 18.254315 -11.284123 2.348762 -6.910198 0.954281 -17.285518 1.767699 -4.020194 17.217858 0.241036 -3.188342 3.282870 0.059880 0.456150 0.042470 -3.579553 -1.530119 -6.665048 5.787915 0.148555 4.227270 -0.106577 0.297009 5.237990 -0.122617 -3.527019 -6.961161 -7.307214 1.381100 27.760613 -2.275810 0.387030 2.351620 -25.004253 -7.059378 2.602638 -51.492762 -10.452964 -2.027105 -15.616872 -33.115103 2.808832 -4.014025 3.159004 -0.138110 0.340980 -0.330050 0.073330 25.445218 10.043109 4.368980 51.940217 5.756701 -3.958018 14.184751 20.175390 0.414541 2.440535 -1.450680 -0.215650 0.166010 0.164920 0.033630 
1.065420 17.764410 -1.261950 -0.287722 -2.346599 1.716757 -15.119010 13.595368 2.835172 3.304817 -1.775211 -14.288620 -5.591131 5.946110 16.336715 -0.211801 4.020544 3.251264 -0.107300 -0.149380 -0.176900 18.240249 -11.335157 2.262663 -7.389936 0.898228 -18.092185 0.600931 -4.037592 19.517974 0.230494 -3.284264 3.230584 0.075880 0.451640 0.044890 -3.554731 -1.631078 -6.639890 5.702635 -0.027331 4.481743 -0.200528 0.185645 5.485453 -0.262818 -3.524406 -6.943185 -7.345734 0.959088 27.454914 -2.257770 0.044880 1.787060 -24.494408 -7.016302 2.448987 -50.420582 -11.916458 -2.052700 -14.848295 -38.884147 3.318391 -3.991364 3.184030 -0.132800 0.338420 -0.325190 0.073900 25.178772 9.797423 4.454914 52.208750 5.256128 -4.075734 13.939136 20.043468 0.336943 2.429727 -1.447261 -0.215730 0.173050 0.164080 0.030650 
1.088840 17.754060 -1.250450 -0.139107 -2.146582 1.314246 -15.112400 13.666805 2.845791 3.493146 -1.862649 -14.282094 -5.442722 6.078748 17.417586 -0.213104 4.128684 3.203408 -0.087980 -0.125980 -0.163720 18.233964 -11.394938 2.194319 -7.837222 0.815826 -19.001109 -0.664338 -4.016388 21.772705 0.211658 -3.396393 3.172766 0.092310 0.441860 0.044150 -3.554470 -1.702485 -6.633742 5.814184 -0.238230 4.878004 -0.483927 0.059054 5.677389 -0.343435 -3.427063 -6.946512 -7.238778 0.552145 27.364867 -2.080860 -0.254360 1.161770 -24.189080 -7.146730 2.336513 -48.884471 -13.239106 -2.224396 -13.590427 -45.553912 3.665885 -3.956314 3.209426 -0.122880 0.330150 -0.315160 0.074900 24.980994 9.638754 4.545322 52.462275 4.806593 -4.158965 14.016238 19.817114 0.299212 2.422714 -1.441927 -0.214510 0.180760 0.158730 0.027290 
